<svg data-v-423bf9ae="" xmlns="http://www.w3.org/2000/svg" viewBox="0 0 228.32908406937472 60" class="font"><!----><!----><defs data-v-423bf9ae=""><linearGradient data-v-423bf9ae="" gradientTransform="rotate(25)" id="9422b925-73a1-4921-9345-a86084645c1f" x1="0%" y1="0%" x2="100%" y2="0%"><stop data-v-423bf9ae="" offset="0%" style="stop-color: rgb(233, 13, 218); stop-opacity: 1;"></stop><stop data-v-423bf9ae="" offset="100%" style="stop-color: rgb(21, 207, 241); stop-opacity: 1;"></stop></linearGradient></defs><g data-v-423bf9ae="" id="60408c86-d167-4aed-8ce1-c906e0d4e12f" fill="url(#9422b925-73a1-4921-9345-a86084645c1f)" transform="matrix(3.826530694961548,0,0,3.826530694961548,-3.2142906188964844,-2.1428563594818115)"><path d="M9.24 9.00C9.24 6.90 7.77 5.21 5.67 5.21C4.69 5.21 3.85 5.64 3.32 6.23L3.29 6.23L3.29 5.42L0.84 5.42L0.84 16.24L3.32 16.24L3.32 11.91C3.91 12.49 4.70 12.81 5.67 12.81C7.77 12.81 9.24 11.10 9.24 9.00ZM6.61 9.00C6.61 10.00 5.87 10.70 4.93 10.70C4.00 10.70 3.26 10.00 3.26 9.00C3.26 8.02 3.96 7.32 4.93 7.32C5.94 7.32 6.61 8.02 6.61 9.00ZM9.88 9.02C9.88 11.23 11.62 12.81 14.21 12.81C16.69 12.81 18.49 11.23 18.49 9.02C18.49 6.78 16.59 5.21 14.21 5.21C11.79 5.21 9.88 6.78 9.88 9.02ZM12.52 9.02C12.52 8.02 13.26 7.32 14.20 7.32C15.12 7.32 15.86 8.02 15.86 9.02C15.86 10.00 15.16 10.70 14.20 10.70C13.19 10.70 12.52 10.00 12.52 9.02ZM22.72 5.21C20.83 5.21 19.59 6.05 19.59 7.52C19.59 8.60 20.31 9.10 21.04 9.48C21.85 9.90 22.64 9.94 22.64 10.46C22.64 10.93 22.22 10.98 21.87 10.98C21.07 10.98 20.09 10.15 20.09 10.15L19.08 11.84C19.08 11.84 20.12 12.81 21.85 12.81C23.32 12.81 25.26 12.47 25.26 10.36C25.26 8.89 24.02 8.36 23.07 8.06C22.46 7.87 21.95 7.76 21.95 7.38C21.95 7.04 22.18 6.94 22.72 6.94C23.48 6.94 24.32 7.39 24.32 7.39L25.13 5.77C25.13 5.77 24.11 5.21 22.72 5.21ZM29.61 5.21C27.72 5.21 26.47 6.05 26.47 7.52C26.47 8.60 27.20 9.10 27.93 9.48C28.74 9.90 29.53 9.94 29.53 10.46C29.53 10.93 29.11 10.98 28.76 10.98C27.96 10.98 26.98 10.15 26.98 10.15L25.97 11.84C25.97 11.84 27.01 12.81 28.74 12.81C30.21 12.81 32.14 12.47 32.14 10.36C32.14 8.89 30.91 8.36 29.96 8.06C29.34 7.87 28.84 7.76 28.84 7.38C28.84 7.04 29.06 6.94 29.61 6.94C30.37 6.94 31.21 7.39 31.21 7.39L32.02 5.77C32.02 5.77 31.00 5.21 29.61 5.21ZM41.78 9.02C41.78 6.92 40.31 5.21 38.21 5.21C37.24 5.21 36.44 5.53 35.85 6.10L35.85 0.56L33.38 0.56L33.38 12.60L35.83 12.60L35.83 11.79L35.85 11.79C36.39 12.38 37.23 12.81 38.21 12.81C40.31 12.81 41.78 11.12 41.78 9.02ZM39.14 9.02C39.14 10.00 38.47 10.70 37.46 10.70C36.50 10.70 35.80 10.00 35.80 9.02C35.80 8.02 36.54 7.32 37.46 7.32C38.40 7.32 39.14 8.02 39.14 9.02ZM42.42 9.02C42.42 11.23 44.16 12.81 46.75 12.81C49.22 12.81 51.03 11.23 51.03 9.02C51.03 6.78 49.13 5.21 46.75 5.21C44.32 5.21 42.42 6.78 42.42 9.02ZM45.05 9.02C45.05 8.02 45.79 7.32 46.73 7.32C47.66 7.32 48.40 8.02 48.40 9.02C48.40 10.00 47.70 10.70 46.73 10.70C45.72 10.70 45.05 10.00 45.05 9.02ZM60.51 12.60L57.44 8.85L60.07 5.42L57.18 5.42L55.93 7.08L54.68 5.42L51.79 5.42L54.42 8.85L51.35 12.60L54.35 12.60L55.93 10.57L57.51 12.60Z"></path></g><!----><!----></svg>